# xmcd
#
# Track frame offsets: 
#        150
#        15467
#        34000
#        47430
#        63121
#        80755
#        91151
#        107145
#        122645
#        137675
#        161338
#        179979
#        197426
#
# Disc length: 2830 seconds
#
# Revision: 4
# Processed by: cddbd v1.5.2PL0 Copyright (c) Steve Scherf et al.
# Submitted via: ExactAudioCopy v1.0b1
#
DISCID=a10b0c0d
DTITLE=Hana Hegerova - Rymovani o zivote
DYEAR=1997
DGENRE=Chanson
TTITLE0=Lasko prokleta
TTITLE1=Pohrdani
TTITLE2=Pisen o jasminu
TTITLE3=Tak abyste to vedela
TTITLE4=Svatebni pisen
TTITLE5=Rymovani o zivote
TTITLE6=Vana plna fialek
TTITLE7=Kolotoc
TTITLE8=Co mi das
TTITLE9=Rozvod
TTITLE10=Ja rada vzpominam
TTITLE11=Levandulova
TTITLE12=Cim dal tim vic
EXTD=
EXTT0=
EXTT1=
EXTT2=
EXTT3=
EXTT4=
EXTT5=
EXTT6=
EXTT7=
EXTT8=
EXTT9=
EXTT10=
EXTT11=
EXTT12=
PLAYORDER=
